<svg width="65" height="65" viewBox="0 0 65 65" fill="none" xmlns="http://www.w3.org/2000/svg">
<g id="Group 9090">
<rect id="Rectangle 122" y="0.208496" width="64.0625" height="64.0625" rx="13.8802" fill="#FFDBE8"/>
<g id="&#240;&#159;&#166;&#134; icon &#34;Fast Delivery Fill&#34;">
<path id="Vector" d="M20.607 22.5041L20.622 22.4318V22.4995H22.411L22.2975 22.7073L22.0811 22.7075L22.0811 22.788L22.2535 22.7879L22.1072 23.0558C22.1593 23.0952 22.2099 23.1364 22.2591 23.1794L23.1234 23.9348L23.1222 22.7869L23.1221 22.7064L23.1218 22.4995H34.6424C35.1591 22.4995 35.5779 22.9183 35.5779 23.435V38.938L29.9301 39.0251C29.5789 37.5737 28.581 36.3768 27.2599 35.7542C26.6282 35.4565 25.9224 35.2902 25.1786 35.2902C24.4348 35.2902 23.729 35.4565 23.0973 35.7542C22.5815 35.9973 22.1154 36.3276 21.7179 36.7261C21.6084 36.7393 21.4968 36.7461 21.3835 36.7461H21.2344C20.9188 36.7461 20.6629 36.4903 20.6629 36.1747C20.6629 35.8591 20.9188 35.6032 21.2344 35.6032H21.3835C22.2741 35.6032 22.996 34.8812 22.996 33.9907C22.996 33.1002 22.2741 32.3782 21.3835 32.3782H19.7784H19.7188C19.4031 32.3782 19.1473 32.1224 19.1473 31.8068C19.1473 31.4912 19.4031 31.2353 19.7188 31.2353H19.7784H21.3835H21.4432C22.3337 31.2353 23.0557 30.5134 23.0557 29.6228C23.0557 28.7323 22.3337 28.0103 21.4432 28.0103H20.4467H18.2628H18.0898C17.7742 28.0103 17.5183 27.7545 17.5183 27.4389C17.5183 27.1233 17.7742 26.8674 18.0898 26.8674H18.2628H20.4467C21.3373 26.8674 22.0592 26.1455 22.0592 25.2549C22.0592 24.3644 21.3373 23.6424 20.4467 23.6424H16.8068C16.4912 23.6424 16.2354 23.3866 16.2354 23.071C16.2354 22.7554 16.4912 22.4995 16.8068 22.4995H20.4467C20.5006 22.4995 20.554 22.501 20.607 22.5041ZM46.9828 33.3522L46.9828 33.3522C47.1391 33.5244 47.2256 33.7485 47.2256 33.9808V37.9946C47.2256 38.1064 47.206 38.2137 47.1699 38.3132C46.7043 37.1858 45.8296 36.2716 44.7315 35.7542C44.2131 35.5099 43.6445 35.3539 43.0455 35.306L43.0455 35.3059C42.9152 35.2955 42.7833 35.2902 42.6502 35.2902C41.9064 35.2902 41.2006 35.4565 40.5689 35.7542C39.8755 36.0809 39.2713 36.5658 38.8028 37.1626V28.3234H42.0054C42.2692 28.3234 42.5208 28.4348 42.698 28.6301L42.698 28.6302L46.9828 33.3522ZM26.7476 39.6244L26.7477 39.6244C26.8086 39.797 26.8421 39.9834 26.8421 40.1786C26.8421 41.0972 26.0973 41.842 25.1786 41.842C24.2599 41.842 23.5152 41.0972 23.5152 40.1786C23.5152 39.9834 23.5486 39.797 23.6096 39.6244L23.6096 39.6244C23.8381 38.9774 24.455 38.5151 25.1786 38.5151C25.9022 38.5151 26.5191 38.9774 26.7476 39.6244ZM44.2192 39.6243L44.2192 39.6244C44.2802 39.7972 44.3137 39.9835 44.3137 40.1786C44.3137 41.0972 43.5689 41.842 42.6502 41.842C41.7314 41.842 40.9868 41.0972 40.9868 40.1786C40.9868 39.9833 41.0202 39.797 41.0811 39.6244C41.3097 38.9773 41.9267 38.5151 42.6502 38.5151C43.3738 38.5151 43.9907 38.9774 44.2192 39.6243Z" stroke="#343434" stroke-width="1.04102"/>
</g>
</g>
</svg>
