<svg width="67" height="65" viewBox="0 0 67 65" fill="none" xmlns="http://www.w3.org/2000/svg">
<g id="Group 9089">
<rect id="Rectangle 122" y="0.895996" width="66.4865" height="64.0625" rx="13.8802" fill="#E9EDFF"/>
<g id="&#240;&#159;&#166;&#134; icon &#34;Pencil Ruler&#34;">
<path id="Vector" d="M17.8755 26.7221L17.8755 26.7221L23.7727 32.4049L31.4306 25.0272L29.4243 23.0941L25.9323 26.4588L17.8755 26.7221ZM17.8755 26.7221C17.3141 26.1812 17.3142 25.3126 17.8755 24.7712C17.8755 24.7711 17.8756 24.7711 17.8756 24.7711L23.4803 19.3707C24.0528 18.8191 24.9882 18.8191 25.5607 19.3707L27.2735 21.0215L23.8095 24.3593C23.8093 24.3595 23.8091 24.3596 23.8089 24.3598C23.8089 24.3598 23.8089 24.3598 23.8089 24.3599C23.4022 24.7511 23.4033 25.3935 23.8089 25.7844L24.5089 26.4588L17.8755 26.7221ZM47.682 25.7216L47.682 25.7216L45.1679 28.1445L38.8458 22.0529L41.3318 19.658C41.3318 19.6579 41.3319 19.6579 41.3319 19.6579C42.3031 18.7227 43.8845 18.7228 44.8549 19.6579L47.6819 22.3818C47.6819 22.3818 47.682 22.3819 47.682 22.3819C48.6412 23.3067 48.6414 24.7971 47.682 25.7216ZM36.6817 24.1385L43.0039 30.2297L24.9581 47.6182L18.4035 48.7256L18.4033 48.7257C17.8235 48.8239 17.3776 48.3413 17.4661 47.8532L18.6082 41.5507L36.6817 24.1385ZM40.624 41.9858L40.6246 41.9864L41.3243 42.6607L41.6861 42.2864L41.325 42.6612L41.3248 42.6611C41.72 43.0426 42.3528 43.0417 42.7476 42.6612L46.2401 39.2961L47.9806 40.9733C48.5423 41.5144 48.5423 42.383 47.9806 42.9241L42.3758 48.324L42.3758 48.324C41.8033 48.8757 40.8679 48.8757 40.2954 48.324L40.2954 48.324L34.4236 42.6669L42.0816 35.2892L44.0892 37.2237L40.6246 40.5619C40.2187 40.953 40.2196 41.5949 40.624 41.9858ZM25.6033 26.6713C25.725 26.6226 25.8369 26.5509 25.9319 26.4592H24.5092L24.509 26.459C24.6041 26.5508 24.716 26.6226 24.8378 26.6713C24.9597 26.72 25.0897 26.7448 25.2206 26.7448C25.3514 26.7448 25.4814 26.72 25.6033 26.6713Z" stroke="#343434" stroke-width="1.04102"/>
</g>
</g>
</svg>
